<svg width="437" height="205" viewBox="0 0 437 205" fill="none" xmlns="http://www.w3.org/2000/svg">
<g clip-path="url(#clip0)">
<path d="M333.328 188.704C381.236 188.704 420.073 150.055 420.073 102.38C420.073 54.7043 381.236 16.0557 333.328 16.0557C285.42 16.0557 246.583 54.7043 246.583 102.38C246.583 150.055 285.42 188.704 333.328 188.704Z" fill="#EEEDF2"/>
<path d="M309.63 57.1357C309.63 61.8604 305.767 65.7041 301.02 65.7041H265.694C261.912 65.7041 258.854 62.6611 258.854 58.8975C258.854 58.6572 258.854 58.457 258.894 58.2168C258.894 58.0566 258.935 57.8965 258.975 57.7363C259.458 55.0137 261.55 52.8115 264.246 52.251C264.728 52.1309 265.211 52.0908 265.694 52.0908C265.734 52.0908 265.734 52.0908 265.775 52.0908C265.734 51.7305 265.694 51.3301 265.694 50.9297C265.694 50.2891 265.775 49.6885 265.855 49.0879C266.7 44.7637 270.522 41.5205 275.109 41.5205C275.712 41.5205 276.316 41.5605 276.879 41.6807C278.207 37.6768 281.305 34.5137 285.288 33.0723C286.535 32.6318 287.863 32.3516 289.231 32.3115C289.473 32.3115 289.674 32.3115 289.915 32.3115C289.955 32.3115 289.996 32.3115 289.996 32.3115C297.479 32.3516 303.555 38.4375 303.555 45.9248C303.555 46.9258 303.434 47.8867 303.233 48.8076C306.934 49.8486 309.63 53.1719 309.63 57.1357Z" fill="#D3D5E7"/>
<path d="M303.434 53.0117C303.434 57.3359 299.893 60.8594 295.548 60.8594H263.32C259.86 60.8594 257.084 58.0967 257.084 54.6533C257.084 54.4531 257.084 54.2529 257.124 54.0127C257.124 53.8525 257.164 53.7324 257.164 53.5723C257.607 51.0898 259.498 49.0879 261.992 48.5674C262.435 48.4873 262.878 48.4072 263.32 48.4072C263.36 48.4072 263.36 48.4072 263.401 48.4072C263.36 48.0469 263.32 47.7266 263.32 47.3662C263.32 46.8057 263.36 46.2451 263.481 45.6846C264.246 41.7207 267.746 38.7578 271.93 38.7578C272.494 38.7578 273.017 38.7978 273.54 38.918C274.747 35.2744 277.603 32.3516 281.225 31.0703C282.351 30.6699 283.558 30.4297 284.805 30.3496C285.007 30.3496 285.208 30.3496 285.409 30.3496C285.449 30.3496 285.449 30.3496 285.489 30.3496C292.329 30.3896 297.882 35.9551 297.882 42.7617C297.882 43.6826 297.801 44.5635 297.6 45.4043C300.98 46.3252 303.434 49.3682 303.434 53.0117Z" fill="white" stroke="#1E247E" stroke-width="5" stroke-miterlimit="10" stroke-linecap="round"/>
<path d="M297.882 42.6016C297.882 46.165 296.393 49.3682 293.979 51.6504Z" fill="white"/>
<path d="M297.882 42.6016C297.882 46.165 296.393 49.3682 293.979 51.6504" stroke="#1E247E" stroke-width="5" stroke-miterlimit="10" stroke-linecap="round"/>
<path d="M271.689 38.7178C275.632 38.7178 278.971 41.4404 279.857 45.084" stroke="#1E247E" stroke-width="5" stroke-miterlimit="10" stroke-linecap="round"/>
<path d="M421.24 102.46C421.24 107.185 417.378 111.028 412.63 111.028H377.344C373.562 111.028 370.505 107.985 370.505 104.222C370.505 103.981 370.505 103.781 370.545 103.541C370.545 103.381 370.585 103.221 370.625 103.061C371.108 100.338 373.2 98.1357 375.896 97.5752C376.379 97.4551 376.862 97.415 377.344 97.415C377.385 97.415 377.385 97.415 377.425 97.415C377.385 97.0547 377.344 96.6543 377.344 96.2539C377.344 95.6133 377.425 95.0127 377.505 94.4121C378.35 90.0879 382.173 86.8447 386.759 86.8447C387.363 86.8447 387.966 86.8848 388.53 87.0049C389.857 83.001 392.955 79.8379 396.939 78.3965C398.186 77.9561 399.514 77.6758 400.882 77.6357C401.123 77.6357 401.324 77.6357 401.566 77.6357C401.606 77.6357 401.646 77.6357 401.646 77.6357C409.13 77.6758 415.205 83.7617 415.205 91.249C415.205 92.25 415.084 93.2109 414.883 94.1318C418.544 95.1729 421.24 98.4961 421.24 102.46Z" fill="#D3D5E7"/>
<path d="M414.762 98.5361C414.762 102.86 411.222 106.384 406.876 106.384H374.649C371.189 106.384 368.412 103.621 368.412 100.178C368.412 99.9775 368.412 99.7774 368.453 99.5371C368.453 99.377 368.493 99.2568 368.493 99.0967C368.935 96.6143 370.826 94.6123 373.321 94.0918C373.764 94.0117 374.206 93.9316 374.649 93.9316C374.689 93.9316 374.689 93.9316 374.729 93.9316C374.689 93.5713 374.649 93.251 374.649 92.8906C374.649 92.3301 374.689 91.7695 374.81 91.209C375.574 87.2451 379.075 84.2822 383.259 84.2822C383.822 84.2822 384.345 84.3223 384.868 84.4424C386.075 80.7988 388.932 77.876 392.553 76.5947C393.68 76.1943 394.887 75.9541 396.134 75.874C396.335 75.874 396.536 75.874 396.737 75.874C396.778 75.874 396.778 75.874 396.818 75.874C403.658 75.9141 409.21 81.4795 409.21 88.2861C409.21 89.207 409.13 90.0879 408.928 90.9287C412.308 91.8897 414.762 94.9326 414.762 98.5361Z" fill="white" stroke="#1E247E" stroke-width="5" stroke-miterlimit="10" stroke-linecap="round"/>
<path d="M409.21 88.166C409.21 91.7295 407.721 94.9326 405.307 97.2149Z" fill="white"/>
<path d="M409.21 88.166C409.21 91.7295 407.721 94.9326 405.307 97.2149" stroke="#1E247E" stroke-width="5" stroke-miterlimit="10" stroke-linecap="round"/>
<path d="M383.017 84.2822C386.96 84.2822 390.3 87.0049 391.185 90.6484" stroke="#1E247E" stroke-width="5" stroke-miterlimit="10" stroke-linecap="round"/>
<path d="M321.097 170.086L316.47 175.531C316.43 175.571 316.47 175.691 316.55 175.691L322.867 176.252C322.907 176.252 322.907 176.292 322.867 176.292L318.24 180.616" stroke="#1E247E" stroke-width="3" stroke-miterlimit="10" stroke-linecap="round"/>
<path opacity="0.2" d="M333.248 167.403L336.507 173.729C336.547 173.81 336.466 173.89 336.426 173.85L330.149 172.969C330.109 172.969 330.109 173.009 330.109 173.009L333.61 178.254" stroke="#1E247E" stroke-width="3" stroke-miterlimit="10" stroke-linecap="round"/>
<path d="M344.312 175.371L347.571 181.697C347.611 181.777 347.531 181.857 347.491 181.817L341.214 180.937C341.174 180.937 341.174 180.977 341.174 180.977L344.674 186.222" stroke="#1E247E" stroke-width="3" stroke-miterlimit="10" stroke-linecap="round"/>
<path d="M384.34 147.063H363.861C363.861 147.063 362.332 152.068 356.74 151.668V157.514C356.74 159.796 354.889 161.638 352.595 161.638H322.621C320.327 161.638 318.477 159.796 318.477 157.514V151.668C312.884 152.068 311.355 147.063 311.355 147.063H290.876C290.433 147.063 290.071 146.663 290.152 146.223L291.52 137.374C292.043 133.931 293.531 130.728 295.744 128.045L309.464 111.829C310.671 110.388 311.355 108.586 311.355 106.704V84.4824C311.355 75.2734 313.81 66.2246 318.477 58.2969L328.254 41.6006C332.438 34.4736 342.778 34.4736 346.963 41.6006L356.74 58.2969C361.407 66.2647 363.861 75.2734 363.861 84.4824V106.704C363.861 108.586 364.505 110.388 365.752 111.829L379.472 128.045C381.725 130.688 383.174 133.931 383.697 137.374L385.065 146.223C385.145 146.663 384.783 147.063 384.34 147.063Z" fill="#D3D5E7"/>
<path d="M352.52 152.148V157.994C352.52 160.276 350.669 162.118 348.376 162.118H318.401C316.108 162.118 314.257 160.276 314.257 157.994V152.148H352.52Z" fill="#DA867D" stroke="#1E247E" stroke-width="4" stroke-miterlimit="10" stroke-linecap="round" stroke-linejoin="round"/>
<path d="M314.699 157.153H320.091" stroke="#1E247E" stroke-width="1.5" stroke-miterlimit="10" stroke-linecap="round" stroke-linejoin="round"/>
<path d="M347.209 157.153H352.641" stroke="#1E247E" stroke-width="1.5" stroke-miterlimit="10" stroke-linecap="round" stroke-linejoin="round"/>
<path d="M380.121 147.544H359.641C359.641 147.544 358.112 152.549 352.52 152.148H314.257C308.664 152.549 307.135 147.544 307.135 147.544H286.656C286.214 147.544 285.851 147.144 285.932 146.703L287.3 137.854C287.823 134.411 289.271 131.208 291.524 128.525L305.244 112.31C306.451 110.868 307.135 109.066 307.135 107.185V84.9629C307.135 75.7539 309.59 66.7051 314.257 58.7773L324.034 42.0811C328.218 34.9541 338.558 34.9541 342.743 42.0811L352.52 58.7773C357.187 66.7451 359.641 75.7539 359.641 84.9629V107.185C359.641 109.066 360.285 110.868 361.532 112.31L375.252 128.525C377.505 131.168 378.954 134.411 379.477 137.854L380.845 146.703C380.925 147.144 380.563 147.544 380.121 147.544Z" fill="white" stroke="#1E247E" stroke-width="4" stroke-miterlimit="10" stroke-linecap="round" stroke-linejoin="round"/>
<path d="M333.288 120.958C337.843 120.958 341.536 117.283 341.536 112.75C341.536 108.217 337.843 104.542 333.288 104.542C328.732 104.542 325.04 108.217 325.04 112.75C325.04 117.283 328.732 120.958 333.288 120.958Z" fill="#69AEF8" stroke="#1E247E" stroke-width="4" stroke-miterlimit="10" stroke-linecap="round" stroke-linejoin="round"/>
<path d="M333.368 94.6123C337.924 94.6123 341.616 90.9375 341.616 86.4043C341.616 81.8711 337.924 78.1963 333.368 78.1963C328.813 78.1963 325.12 81.8711 325.12 86.4043C325.12 90.9375 328.813 94.6123 333.368 94.6123Z" fill="#69AEF8" stroke="#1E247E" stroke-width="4" stroke-miterlimit="10" stroke-linecap="round" stroke-linejoin="round"/>
<path d="M316.751 135.132L324.195 140.817" stroke="#1E247E" stroke-width="1.5" stroke-miterlimit="10" stroke-linecap="round"/>
<path d="M316.751 138.695L320.453 141.498" stroke="#1E247E" stroke-width="1.5" stroke-miterlimit="10" stroke-linecap="round"/>
<path d="M322.143 135.612L324.195 137.174" stroke="#1E247E" stroke-width="1.5" stroke-miterlimit="10" stroke-linecap="round"/>
<path d="M355.095 97.4951V99.6572" stroke="#1E247E" stroke-width="1.5" stroke-miterlimit="10" stroke-linecap="round" stroke-linejoin="round"/>
<path d="M355.095 88.8067V95.7334" stroke="#1E247E" stroke-width="1.5" stroke-miterlimit="10" stroke-linecap="round" stroke-linejoin="round"/>
<path d="M335.702 40.5195C336.748 40.7197 337.794 41.2002 338.558 42.041" stroke="#1E247E" stroke-width="1.5" stroke-miterlimit="10" stroke-linecap="round" stroke-linejoin="round"/>
<path d="M307.135 147.544V132.93" stroke="#1E247E" stroke-width="4" stroke-miterlimit="10" stroke-linecap="round" stroke-linejoin="round"/>
<path d="M359.44 147.544V132.93" stroke="#1E247E" stroke-width="4" stroke-miterlimit="10" stroke-linecap="round" stroke-linejoin="round"/>
<path d="M359.44 128.726C361.009 128.726 361.009 126.323 359.44 126.323C357.871 126.323 357.871 128.726 359.44 128.726Z" fill="#1E247E"/>
<path d="M357.428 33.4326L354.049 34.4336" stroke="white" stroke-width="7" stroke-miterlimit="10" stroke-linecap="round"/>
<path d="M353.807 28.6279L351.112 31.4707" stroke="white" stroke-width="7" stroke-miterlimit="10" stroke-linecap="round"/>
<path d="M347.651 29.0283L348.215 25.3447" stroke="white" stroke-width="7" stroke-miterlimit="10" stroke-linecap="round"/>
<path d="M40.0977 121V95H46.8977V121H40.0977ZM40.6477 91.05C39.9143 90.2833 39.5477 89.3333 39.5477 88.2C39.5477 87.0667 39.9143 86.1333 40.6477 85.4C41.4143 84.6333 42.3643 84.25 43.4977 84.25C44.631 84.25 45.5643 84.6333 46.2977 85.4C47.0643 86.1333 47.4477 87.0667 47.4477 88.2C47.4477 89.3333 47.0643 90.2833 46.2977 91.05C45.5643 91.7833 44.631 92.15 43.4977 92.15C42.3643 92.15 41.4143 91.7833 40.6477 91.05ZM55.266 121V95H61.766V98.1C63.0993 95.6333 65.6493 94.4 69.416 94.4C72.2494 94.4 74.4827 95.2833 76.116 97.05C77.7827 98.8167 78.616 101.25 78.616 104.35V121H71.816V105.45C71.816 103.883 71.416 102.633 70.616 101.7C69.8493 100.767 68.666 100.3 67.066 100.3C65.4993 100.3 64.266 100.75 63.366 101.65C62.4993 102.55 62.066 103.867 62.066 105.6V121H55.266ZM86.7012 121V95H93.5012V121H86.7012ZM87.2512 91.05C86.5178 90.2833 86.1512 89.3333 86.1512 88.2C86.1512 87.0667 86.5178 86.1333 87.2512 85.4C88.0178 84.6333 88.9678 84.25 90.1012 84.25C91.2345 84.25 92.1678 84.6333 92.9012 85.4C93.6678 86.1333 94.0512 87.0667 94.0512 88.2C94.0512 89.3333 93.6678 90.2833 92.9012 91.05C92.1678 91.7833 91.2345 92.15 90.1012 92.15C88.9678 92.15 88.0178 91.7833 87.2512 91.05ZM110.92 121C108.486 121 106.653 120.367 105.42 119.1C104.186 117.8 103.57 115.967 103.57 113.6V100.5H99.8695V95H103.57V87.9H110.42V95H115.97V100.5H110.42V113.1C110.42 113.967 110.603 114.583 110.97 114.95C111.336 115.317 111.97 115.5 112.87 115.5H115.62V121H110.92ZM155.759 86V121H149.059V99.5L142.509 112.5H136.309L129.759 99.5V121H123.059V86H129.509L139.409 106L149.309 86H155.759ZM173.19 121.6C170.223 121.6 167.84 120.883 166.04 119.45C164.24 117.983 163.34 116 163.34 113.5C163.34 110.767 164.273 108.717 166.14 107.35C168.04 105.95 170.607 105.25 173.84 105.25C176.473 105.25 178.673 105.983 180.44 107.45V103.9C180.44 102.667 180.023 101.667 179.19 100.9C178.39 100.1 177.307 99.7 175.94 99.7C173.773 99.7 172.273 100.517 171.44 102.15H165.14C165.873 99.65 167.207 97.7333 169.14 96.4C171.073 95.0667 173.457 94.4 176.29 94.4C179.557 94.4 182.19 95.3167 184.19 97.15C186.223 98.9833 187.24 101.4 187.24 104.4V121H180.69V118.6C180.09 119.467 179.073 120.183 177.64 120.75C176.207 121.317 174.723 121.6 173.19 121.6ZM174.94 117.1C176.44 117.1 177.723 116.733 178.79 116C179.89 115.267 180.44 114.35 180.44 113.25C180.44 112.117 179.94 111.233 178.94 110.6C177.973 109.933 176.707 109.6 175.14 109.6C173.507 109.6 172.223 109.917 171.29 110.55C170.39 111.183 169.94 112.1 169.94 113.3C169.94 114.467 170.407 115.4 171.34 116.1C172.273 116.767 173.473 117.1 174.94 117.1ZM206.338 121.6C202.505 121.6 199.488 120.517 197.288 118.35C195.121 116.183 194.038 113.35 194.038 109.85V106.15C194.038 102.65 195.121 99.8167 197.288 97.65C199.488 95.4833 202.505 94.4 206.338 94.4C209.771 94.4 212.571 95.3667 214.738 97.3C216.938 99.2333 218.088 101.7 218.188 104.7H211.988C211.821 103.3 211.288 102.15 210.388 101.25C209.488 100.35 208.188 99.9 206.488 99.9C204.621 99.9 203.205 100.45 202.238 101.55C201.305 102.617 200.838 104.067 200.838 105.9V110.1C200.838 111.933 201.305 113.4 202.238 114.5C203.205 115.567 204.621 116.1 206.488 116.1C208.188 116.1 209.488 115.65 210.388 114.75C211.288 113.85 211.821 112.7 211.988 111.3H218.188C218.088 114.3 216.938 116.767 214.738 118.7C212.571 120.633 209.771 121.6 206.338 121.6Z" fill="#1E247E"/>
<path d="M13.8157 155.536C14.9197 155.536 16.0157 155.168 17.1037 154.432L18.0637 155.752C17.5357 156.216 16.8797 156.584 16.0957 156.856C15.3117 157.128 14.5517 157.264 13.8157 157.264C11.9437 157.264 10.4797 156.68 9.42369 155.512C8.38369 154.328 7.86369 152.736 7.86369 150.736C7.86369 149.472 8.09569 148.336 8.55969 147.328C9.03969 146.32 9.72769 145.528 10.6237 144.952C11.5197 144.376 12.5837 144.088 13.8157 144.088C15.4477 144.088 16.8557 144.584 18.0397 145.576L17.0557 146.896C15.9517 146.16 14.8637 145.792 13.7917 145.792C12.6557 145.792 11.7437 146.216 11.0557 147.064C10.3837 147.896 10.0477 149.12 10.0477 150.736C10.0477 152.352 10.3837 153.56 11.0557 154.36C11.7437 155.144 12.6637 155.536 13.8157 155.536ZM27.4143 153.88C27.4143 155.016 28.1103 155.584 29.5023 155.584C30.1583 155.584 30.8623 155.44 31.6143 155.152L32.1423 156.616C31.3423 157.048 30.3423 157.264 29.1423 157.264C28.0063 157.264 27.0943 156.952 26.4063 156.328C25.7343 155.704 25.3983 154.856 25.3983 153.784V140.872H21.5103V139.264H27.4143V153.88ZM38.4689 151.384C38.5169 152.776 38.8769 153.824 39.5489 154.528C40.2369 155.232 41.1009 155.584 42.1409 155.584C42.7649 155.584 43.3329 155.496 43.8449 155.32C44.3729 155.128 44.9329 154.84 45.5249 154.456L46.4609 155.8C45.8689 156.264 45.1889 156.624 44.4209 156.88C43.6689 157.136 42.9089 157.264 42.1409 157.264C40.3169 157.264 38.8929 156.672 37.8689 155.488C36.8609 154.288 36.3569 152.688 36.3569 150.688C36.3569 149.424 36.5809 148.296 37.0289 147.304C37.4769 146.296 38.1169 145.512 38.9489 144.952C39.7809 144.376 40.7489 144.088 41.8529 144.088C43.4529 144.088 44.7089 144.648 45.6209 145.768C46.5489 146.872 47.0129 148.384 47.0129 150.304C47.0129 150.672 46.9969 151.032 46.9649 151.384H38.4689ZM41.8769 145.744C40.9009 145.744 40.1089 146.096 39.5009 146.8C38.8929 147.488 38.5489 148.504 38.4689 149.848H45.0449C45.0289 148.52 44.7409 147.504 44.1809 146.8C43.6209 146.096 42.8529 145.744 41.8769 145.744ZM60.3236 154.24C60.3236 154.736 60.4036 155.104 60.5636 155.344C60.7236 155.568 60.9876 155.736 61.3556 155.848L60.8516 157.288C59.6196 157.128 58.8516 156.528 58.5476 155.488C58.0996 156.064 57.5316 156.504 56.8436 156.808C56.1716 157.112 55.4196 157.264 54.5876 157.264C53.3236 157.264 52.3236 156.912 51.5876 156.208C50.8676 155.504 50.5076 154.56 50.5076 153.376C50.5076 152.08 51.0116 151.08 52.0196 150.376C53.0436 149.672 54.5076 149.32 56.4116 149.32H58.2836V148.288C58.2836 147.392 58.0276 146.752 57.5156 146.368C57.0036 145.968 56.2596 145.768 55.2836 145.768C54.3236 145.768 53.2276 145.984 51.9956 146.416L51.4436 144.88C52.9316 144.352 54.3156 144.088 55.5956 144.088C57.1316 144.088 58.2996 144.448 59.0996 145.168C59.9156 145.888 60.3236 146.888 60.3236 148.168V154.24ZM55.0916 155.752C55.7156 155.752 56.3076 155.592 56.8676 155.272C57.4436 154.952 57.9156 154.512 58.2836 153.952V150.712H56.4596C55.1156 150.712 54.1476 150.936 53.5556 151.384C52.9636 151.832 52.6676 152.488 52.6676 153.352C52.6676 154.952 53.4756 155.752 55.0916 155.752ZM65.6422 144.352H67.3702L67.5382 146.128C68.0342 145.488 68.6582 144.992 69.4102 144.64C70.1782 144.272 70.9462 144.088 71.7142 144.088C74.0822 144.088 75.2662 145.336 75.2662 147.832V157H73.2502V149.32C73.2502 148.376 73.1942 147.656 73.0822 147.16C72.9862 146.664 72.7862 146.296 72.4822 146.056C72.1782 145.816 71.7142 145.696 71.0902 145.696C70.4022 145.696 69.7542 145.904 69.1462 146.32C68.5382 146.736 68.0422 147.232 67.6582 147.808V157H65.6422V144.352ZM104.023 139.264V157H102.247L102.055 155.344C101.591 155.984 101.055 156.464 100.447 156.784C99.8394 157.104 99.1834 157.264 98.4794 157.264C96.8794 157.264 95.6714 156.68 94.8554 155.512C94.0554 154.344 93.6554 152.736 93.6554 150.688C93.6554 149.424 93.8554 148.296 94.2554 147.304C94.6554 146.296 95.2234 145.512 95.9594 144.952C96.7114 144.376 97.5914 144.088 98.5994 144.088C99.9914 144.088 101.127 144.592 102.007 145.6V139.024L104.023 139.264ZM99.1274 145.72C98.0714 145.72 97.2554 146.136 96.6794 146.968C96.1194 147.8 95.8394 149.04 95.8394 150.688C95.8394 152.32 96.0954 153.56 96.6074 154.408C97.1354 155.24 97.8954 155.656 98.8874 155.656C100.087 155.656 101.127 154.984 102.007 153.64V147.352C101.655 146.824 101.231 146.424 100.735 146.152C100.239 145.864 99.7034 145.72 99.1274 145.72ZM110.422 151.384C110.47 152.776 110.83 153.824 111.502 154.528C112.19 155.232 113.054 155.584 114.094 155.584C114.718 155.584 115.286 155.496 115.798 155.32C116.326 155.128 116.886 154.84 117.478 154.456L118.414 155.8C117.822 156.264 117.142 156.624 116.374 156.88C115.622 157.136 114.862 157.264 114.094 157.264C112.27 157.264 110.846 156.672 109.822 155.488C108.814 154.288 108.31 152.688 108.31 150.688C108.31 149.424 108.534 148.296 108.982 147.304C109.43 146.296 110.07 145.512 110.902 144.952C111.734 144.376 112.702 144.088 113.806 144.088C115.406 144.088 116.662 144.648 117.574 145.768C118.502 146.872 118.966 148.384 118.966 150.304C118.966 150.672 118.95 151.032 118.918 151.384H110.422ZM113.83 145.744C112.854 145.744 112.062 146.096 111.454 146.8C110.846 147.488 110.502 148.504 110.422 149.848H116.998C116.982 148.52 116.694 147.504 116.134 146.8C115.574 146.096 114.806 145.744 113.83 145.744ZM133.765 144.352L129.157 157H126.829L122.245 144.352H124.405L128.053 155.176L131.653 144.352H133.765ZM160.314 144.088C161.034 144.088 161.618 144.344 162.066 144.856C162.53 145.352 162.762 146.264 162.762 147.592V157H160.914V147.928C160.914 147.048 160.858 146.456 160.746 146.152C160.634 145.832 160.362 145.672 159.93 145.672C159.114 145.672 158.378 146.176 157.722 147.184V157H155.85V147.928C155.85 147.048 155.794 146.456 155.682 146.152C155.57 145.832 155.298 145.672 154.866 145.672C154.05 145.672 153.314 146.176 152.658 147.184V157H150.81V144.352H152.37L152.514 145.84C152.898 145.28 153.298 144.848 153.714 144.544C154.146 144.24 154.658 144.088 155.25 144.088C156.434 144.088 157.194 144.648 157.53 145.768C157.914 145.224 158.322 144.808 158.754 144.52C159.186 144.232 159.706 144.088 160.314 144.088ZM175.449 154.24C175.449 154.736 175.529 155.104 175.689 155.344C175.849 155.568 176.113 155.736 176.481 155.848L175.977 157.288C174.745 157.128 173.977 156.528 173.673 155.488C173.225 156.064 172.657 156.504 171.969 156.808C171.297 157.112 170.545 157.264 169.713 157.264C168.449 157.264 167.449 156.912 166.713 156.208C165.993 155.504 165.633 154.56 165.633 153.376C165.633 152.08 166.137 151.08 167.145 150.376C168.169 149.672 169.633 149.32 171.537 149.32H173.409V148.288C173.409 147.392 173.153 146.752 172.641 146.368C172.129 145.968 171.385 145.768 170.409 145.768C169.449 145.768 168.353 145.984 167.121 146.416L166.569 144.88C168.057 144.352 169.441 144.088 170.721 144.088C172.257 144.088 173.425 144.448 174.225 145.168C175.041 145.888 175.449 146.888 175.449 148.168V154.24ZM170.217 155.752C170.841 155.752 171.433 155.592 171.993 155.272C172.569 154.952 173.041 154.512 173.409 153.952V150.712H171.585C170.241 150.712 169.273 150.936 168.681 151.384C168.089 151.832 167.793 152.488 167.793 153.352C167.793 154.952 168.601 155.752 170.217 155.752ZM186.503 155.536C187.607 155.536 188.703 155.168 189.791 154.432L190.751 155.752C190.223 156.216 189.567 156.584 188.783 156.856C187.999 157.128 187.239 157.264 186.503 157.264C184.631 157.264 183.167 156.68 182.111 155.512C181.071 154.328 180.551 152.736 180.551 150.736C180.551 149.472 180.783 148.336 181.247 147.328C181.727 146.32 182.415 145.528 183.311 144.952C184.207 144.376 185.271 144.088 186.503 144.088C188.135 144.088 189.543 144.584 190.727 145.576L189.743 146.896C188.639 146.16 187.551 145.792 186.479 145.792C185.343 145.792 184.431 146.216 183.743 147.064C183.071 147.896 182.735 149.12 182.735 150.736C182.735 152.352 183.071 153.56 183.743 154.36C184.431 155.144 185.351 155.536 186.503 155.536ZM197.174 146.104C197.67 145.464 198.278 144.968 198.998 144.616C199.718 144.264 200.462 144.088 201.23 144.088C203.598 144.088 204.782 145.336 204.782 147.832V157H202.766V147.856C202.766 147.104 202.59 146.56 202.238 146.224C201.886 145.872 201.326 145.696 200.558 145.696C199.902 145.696 199.27 145.904 198.662 146.32C198.054 146.736 197.558 147.224 197.174 147.784V157H195.158V139.288L197.174 139.072V146.104ZM214.348 138.448C214.796 138.448 215.156 138.584 215.428 138.856C215.7 139.112 215.836 139.448 215.836 139.864C215.836 140.28 215.7 140.624 215.428 140.896C215.156 141.152 214.796 141.28 214.348 141.28C213.916 141.28 213.564 141.152 213.292 140.896C213.036 140.624 212.908 140.28 212.908 139.864C212.908 139.448 213.036 139.112 213.292 138.856C213.564 138.584 213.916 138.448 214.348 138.448ZM215.956 144.352V155.392H219.508V157H210.052V155.392H213.94V145.96H210.172V144.352H215.956ZM223.939 144.352H225.667L225.835 146.128C226.331 145.488 226.955 144.992 227.707 144.64C228.475 144.272 229.243 144.088 230.011 144.088C232.379 144.088 233.563 145.336 233.563 147.832V157H231.547V149.32C231.547 148.376 231.491 147.656 231.379 147.16C231.283 146.664 231.083 146.296 230.779 146.056C230.475 145.816 230.011 145.696 229.387 145.696C228.699 145.696 228.051 145.904 227.443 146.32C226.835 146.736 226.339 147.232 225.955 147.808V157H223.939V144.352ZM239.938 151.384C239.986 152.776 240.346 153.824 241.018 154.528C241.706 155.232 242.57 155.584 243.61 155.584C244.234 155.584 244.802 155.496 245.314 155.32C245.842 155.128 246.402 154.84 246.994 154.456L247.93 155.8C247.338 156.264 246.658 156.624 245.89 156.88C245.138 157.136 244.378 157.264 243.61 157.264C241.786 157.264 240.362 156.672 239.338 155.488C238.33 154.288 237.826 152.688 237.826 150.688C237.826 149.424 238.05 148.296 238.498 147.304C238.946 146.296 239.586 145.512 240.418 144.952C241.25 144.376 242.218 144.088 243.322 144.088C244.922 144.088 246.178 144.648 247.09 145.768C248.018 146.872 248.482 148.384 248.482 150.304C248.482 150.672 248.466 151.032 248.434 151.384H239.938ZM243.346 145.744C242.37 145.744 241.578 146.096 240.97 146.8C240.362 147.488 240.018 148.504 239.938 149.848H246.514C246.498 148.52 246.21 147.504 245.65 146.8C245.09 146.096 244.322 145.744 243.346 145.744Z" fill="#1E247E"/>
</g>
<defs>
<clipPath id="clip0">
<rect width="437" height="205" fill="white"/>
</clipPath>
</defs>
</svg>
